<?xml version="1.0" encoding="UTF-8" standalone="no"?>
<!-- Generator: Adobe Illustrator 16.0.0, SVG Export Plug-In . SVG Version: 6.00 Build 0)  -->

<svg
   xmlns:dc="http://purl.org/dc/elements/1.1/"
   xmlns:cc="http://creativecommons.org/ns#"
   xmlns:rdf="http://www.w3.org/1999/02/22-rdf-syntax-ns#"
   xmlns:svg="http://www.w3.org/2000/svg"
   xmlns="http://www.w3.org/2000/svg"
   xmlns:sodipodi="http://sodipodi.sourceforge.net/DTD/sodipodi-0.dtd"
   xmlns:inkscape="http://www.inkscape.org/namespaces/inkscape"
   version="1.1"
   id="Calque_1"
   x="0px"
   y="0px"
   width="286.51px"
   height="202.195px"
   viewBox="0 0 286.51 202.195"
   enable-background="new 0 0 286.51 202.195"
   xml:space="preserve"
   sodipodi:docname="ensicaen.svg"
   inkscape:export-filename="/Users/fouroche74/Documents/d1/enseignement/informatique/odl/cours/transparents/version-remark/figures/logo/ensicaen.png"
   inkscape:export-xdpi="90.209946"
   inkscape:export-ydpi="90.209946"
   inkscape:version="0.92.2 5c3e80d, 2017-08-06"><metadata
     id="metadata195"><rdf:RDF><cc:Work
         rdf:about=""><dc:format>image/svg+xml</dc:format><dc:type
           rdf:resource="http://purl.org/dc/dcmitype/StillImage" /></cc:Work></rdf:RDF></metadata><defs
     id="defs193" /><sodipodi:namedview
     pagecolor="#ffffff"
     bordercolor="#666666"
     borderopacity="1"
     objecttolerance="10"
     gridtolerance="10"
     guidetolerance="10"
     inkscape:pageopacity="0"
     inkscape:pageshadow="2"
     inkscape:window-width="1522"
     inkscape:window-height="814"
     id="namedview191"
     showgrid="false"
     inkscape:zoom="1.16719"
     inkscape:cx="118.40901"
     inkscape:cy="101.0975"
     inkscape:window-x="0"
     inkscape:window-y="0"
     inkscape:window-maximized="0"
     inkscape:current-layer="Calque_1" /><g
     id="g86"><path
       d="M34.461,150.771h-6.07v-9.186h6.07v1.472h-4.322v2.195h4.265v1.438h-4.265v2.529h4.322V150.771z M33.415,138.539   l-1.655,2.218h-1.219l1.034-2.218H33.415z"
       id="path2" /><path
       d="M45.394,149.115c-0.46,0.56-1.018,1.005-1.673,1.334s-1.378,0.494-2.167,0.494c-0.682,0-1.322-0.125-1.92-0.374   c-0.598-0.248-1.118-0.588-1.56-1.018c-0.442-0.429-0.792-0.933-1.047-1.511c-0.255-0.579-0.383-1.202-0.383-1.869   s0.128-1.289,0.383-1.868c0.255-0.578,0.604-1.084,1.047-1.517c0.441-0.434,0.962-0.772,1.56-1.019   c0.598-0.244,1.238-0.367,1.92-0.367c0.789,0,1.512,0.165,2.167,0.494c0.655,0.33,1.201,0.759,1.639,1.288l-1.23,1.265   c-0.283-0.406-0.649-0.734-1.098-0.983s-0.94-0.374-1.478-0.374c-0.43,0-0.833,0.083-1.213,0.248   c-0.379,0.164-0.711,0.387-0.994,0.666c-0.283,0.28-0.508,0.605-0.673,0.978s-0.247,0.769-0.247,1.189   c0,0.414,0.082,0.808,0.247,1.179c0.165,0.372,0.39,0.698,0.673,0.978c0.283,0.28,0.615,0.502,0.994,0.667   c0.38,0.164,0.783,0.247,1.213,0.247c0.567,0,1.069-0.129,1.506-0.386c0.438-0.256,0.801-0.596,1.093-1.018L45.394,149.115z"
       id="path4" /><path
       d="M56.499,146.172c0,0.659-0.128,1.28-0.385,1.862c-0.256,0.583-0.606,1.089-1.05,1.518c-0.444,0.43-0.961,0.77-1.551,1.018   c-0.589,0.249-1.217,0.374-1.883,0.374s-1.296-0.125-1.89-0.374c-0.593-0.248-1.111-0.588-1.556-1.018   c-0.443-0.429-0.794-0.933-1.051-1.511c-0.256-0.579-0.384-1.202-0.384-1.869s0.128-1.291,0.384-1.873   c0.257-0.583,0.607-1.089,1.051-1.519c0.444-0.429,0.963-0.766,1.556-1.012c0.594-0.244,1.224-0.367,1.89-0.367   s1.294,0.123,1.883,0.367c0.59,0.246,1.106,0.585,1.551,1.019c0.443,0.433,0.794,0.938,1.05,1.517   C56.371,144.883,56.499,145.505,56.499,146.172z M54.718,146.172c0-0.421-0.081-0.817-0.242-1.189s-0.382-0.697-0.662-0.978   c-0.28-0.279-0.608-0.502-0.984-0.666c-0.377-0.165-0.776-0.248-1.198-0.248c-0.43,0-0.833,0.083-1.21,0.248   c-0.376,0.164-0.704,0.387-0.984,0.666c-0.28,0.28-0.501,0.605-0.662,0.978s-0.242,0.769-0.242,1.189   c0,0.414,0.081,0.809,0.242,1.185s0.382,0.703,0.662,0.982c0.28,0.28,0.608,0.503,0.984,0.667c0.377,0.165,0.78,0.248,1.21,0.248   c0.422,0,0.821-0.083,1.198-0.248c0.376-0.164,0.704-0.387,0.984-0.667c0.28-0.279,0.501-0.606,0.662-0.982   S54.718,146.586,54.718,146.172z"
       id="path6" /><path
       d="M65.26,150.771h-6.22v-9.186h1.816v7.461h4.403V150.771z"
       id="path8" /><path
       d="M73.514,150.771h-6.07v-9.186h6.07v1.472h-4.322v2.195h4.265v1.438h-4.265v2.529h4.322V150.771z"
       id="path10" /><path
       d="M87.263,144.666c0,0.437-0.083,0.846-0.247,1.225c-0.166,0.38-0.391,0.709-0.675,0.989   c-0.284,0.279-0.618,0.498-1.002,0.654c-0.385,0.157-0.792,0.236-1.222,0.236h-1.521v3h-1.782v-9.186h3.306   c0.43,0,0.836,0.079,1.221,0.235c0.384,0.157,0.718,0.374,1.002,0.65c0.284,0.275,0.509,0.602,0.674,0.978   C87.18,143.823,87.263,144.229,87.263,144.666z M85.481,144.643c0-0.237-0.045-0.459-0.133-0.666s-0.209-0.387-0.362-0.54   s-0.333-0.276-0.54-0.368s-0.429-0.139-0.667-0.139h-1.184v3.473h1.184c0.238,0,0.46-0.048,0.667-0.144s0.387-0.225,0.54-0.386   s0.274-0.347,0.362-0.558C85.437,145.105,85.481,144.881,85.481,144.643z"
       id="path12" /><path
       d="M97.609,141.574v4.989c0,0.613-0.092,1.184-0.275,1.713c-0.185,0.528-0.45,0.99-0.799,1.385   c-0.35,0.396-0.774,0.705-1.276,0.932c-0.502,0.226-1.075,0.339-1.719,0.339c-0.629,0-1.196-0.111-1.701-0.333   c-0.506-0.223-0.938-0.527-1.294-0.914c-0.355-0.387-0.63-0.843-0.822-1.368c-0.191-0.525-0.287-1.09-0.287-1.695v-5.047h1.782   v5.058c0,0.353,0.05,0.685,0.149,0.994c0.1,0.311,0.245,0.581,0.437,0.811c0.192,0.23,0.432,0.413,0.719,0.547   c0.288,0.134,0.615,0.201,0.982,0.201c0.392,0,0.73-0.063,1.019-0.189c0.287-0.127,0.524-0.303,0.712-0.529   c0.188-0.226,0.33-0.492,0.426-0.799s0.144-0.644,0.144-1.012v-5.081H97.609z"
       id="path14" /><path
       d="M106.807,148.138c0,0.384-0.079,0.738-0.235,1.063c-0.157,0.326-0.366,0.605-0.627,0.84   c-0.261,0.233-0.562,0.415-0.902,0.546s-0.699,0.195-1.075,0.195l-3.713-0.012v-9.196h3.311c0.398,0,0.769,0.059,1.109,0.178   s0.638,0.291,0.891,0.518c0.253,0.226,0.45,0.502,0.593,0.827c0.142,0.326,0.213,0.691,0.213,1.099c0,0.345-0.077,0.678-0.23,1   c-0.153,0.321-0.356,0.594-0.609,0.816c0.199,0.1,0.377,0.226,0.534,0.379s0.292,0.324,0.402,0.512   c0.111,0.188,0.196,0.388,0.254,0.598C106.777,147.711,106.807,147.924,106.807,148.138z M104.61,144.229   c0-0.223-0.042-0.414-0.126-0.575c-0.085-0.161-0.198-0.295-0.339-0.402c-0.143-0.106-0.305-0.188-0.489-0.241   c-0.184-0.054-0.375-0.081-0.575-0.081h-1.045v2.53c0.19,0.008,0.363,0.011,0.517,0.011s0.33,0,0.528,0   c0.2,0,0.392-0.022,0.575-0.068c0.185-0.047,0.347-0.119,0.489-0.219c0.141-0.1,0.254-0.228,0.339-0.385   C104.568,144.642,104.61,144.452,104.61,144.229z M104.955,148.034c0-0.191-0.036-0.367-0.108-0.528   c-0.073-0.161-0.173-0.297-0.299-0.408c-0.127-0.11-0.272-0.197-0.438-0.259c-0.165-0.061-0.343-0.092-0.534-0.092   c-0.261-0.008-0.518-0.01-0.771-0.006s-0.51,0.006-0.77,0.006v2.541h1.333c0.191,0,0.383-0.023,0.574-0.069   c0.192-0.046,0.362-0.121,0.512-0.224c0.149-0.104,0.271-0.234,0.362-0.392C104.91,148.447,104.955,148.257,104.955,148.034z"
       id="path16" /><path
       d="M115.439,150.771h-6.219v-9.186h1.815v7.461h4.403V150.771z"
       id="path18" /><path
       d="M119.406,150.771h-1.782v-9.186h1.782V150.771z"
       id="path20" /><path
       d="M131.627,146.172c0,0.545-0.087,1.06-0.259,1.547c-0.173,0.486-0.42,0.933-0.742,1.339l0.92,0.908l-1.058,1.058   l-0.942-0.954c-0.391,0.269-0.82,0.479-1.288,0.633s-0.962,0.229-1.482,0.229c-0.667,0-1.294-0.124-1.88-0.374   c-0.586-0.248-1.1-0.59-1.541-1.022c-0.44-0.434-0.787-0.938-1.04-1.512c-0.253-0.575-0.38-1.192-0.38-1.852   s0.127-1.277,0.38-1.856c0.253-0.578,0.6-1.084,1.04-1.518c0.441-0.433,0.955-0.773,1.541-1.022c0.586-0.25,1.213-0.374,1.88-0.374   c0.666,0,1.295,0.124,1.885,0.374c0.591,0.249,1.105,0.59,1.547,1.022c0.44,0.434,0.787,0.939,1.04,1.518   C131.5,144.895,131.627,145.513,131.627,146.172z M129.891,146.172c0-0.421-0.083-0.819-0.247-1.195   c-0.165-0.375-0.388-0.705-0.667-0.988c-0.28-0.284-0.609-0.508-0.988-0.673c-0.38-0.165-0.784-0.247-1.213-0.247   c-0.43,0-0.832,0.082-1.208,0.247c-0.375,0.165-0.705,0.389-0.988,0.673c-0.283,0.283-0.506,0.613-0.667,0.988   c-0.16,0.376-0.241,0.774-0.241,1.195c0,0.422,0.081,0.82,0.241,1.196c0.161,0.375,0.384,0.703,0.667,0.982   c0.283,0.28,0.613,0.502,0.988,0.667c0.376,0.165,0.778,0.247,1.208,0.247c0.291,0,0.569-0.038,0.833-0.115   c0.265-0.076,0.516-0.184,0.753-0.321l-0.862-0.84l1.058-1.057l0.852,0.873C129.729,147.307,129.891,146.763,129.891,146.172z"
       id="path22" /><path
       d="M142.215,141.574v4.989c0,0.613-0.093,1.184-0.276,1.713c-0.184,0.528-0.45,0.99-0.799,1.385   c-0.349,0.396-0.774,0.705-1.276,0.932c-0.502,0.226-1.075,0.339-1.719,0.339c-0.628,0-1.195-0.111-1.701-0.333   c-0.506-0.223-0.938-0.527-1.293-0.914c-0.356-0.387-0.631-0.843-0.822-1.368c-0.192-0.525-0.287-1.09-0.287-1.695v-5.047h1.781   v5.058c0,0.353,0.05,0.685,0.149,0.994c0.1,0.311,0.245,0.581,0.438,0.811c0.191,0.23,0.431,0.413,0.718,0.547   c0.288,0.134,0.615,0.201,0.983,0.201c0.391,0,0.729-0.063,1.018-0.189c0.287-0.127,0.524-0.303,0.712-0.529   c0.188-0.226,0.33-0.492,0.426-0.799s0.144-0.644,0.144-1.012v-5.081H142.215z"
       id="path24" /><path
       d="M150.929,150.771h-6.07v-9.186h6.07v1.472h-4.322v2.195h4.265v1.438h-4.265v2.529h4.322V150.771z"
       id="path26" /><path
       d="M166.402,146.172c0,0.637-0.106,1.232-0.321,1.788s-0.514,1.042-0.897,1.46c-0.383,0.418-0.841,0.747-1.373,0.988   c-0.533,0.242-1.114,0.362-1.742,0.362h-3.84v-9.196h3.84c0.628,0,1.209,0.122,1.742,0.367c0.532,0.245,0.99,0.575,1.373,0.988   c0.384,0.415,0.683,0.901,0.897,1.461S166.402,145.544,166.402,146.172z M164.598,146.126c0.008-0.429-0.058-0.835-0.195-1.218   c-0.138-0.384-0.337-0.719-0.598-1.007c-0.261-0.287-0.581-0.513-0.96-0.678c-0.38-0.165-0.807-0.247-1.282-0.247h-1.552v6.277   h1.552c0.468,0,0.888-0.079,1.259-0.236c0.372-0.157,0.688-0.376,0.949-0.655c0.26-0.279,0.461-0.609,0.603-0.988   C164.516,146.994,164.59,146.578,164.598,146.126z"
       id="path28" /><path
       d="M170.013,142.941c0,0.185-0.027,0.358-0.081,0.523s-0.132,0.311-0.235,0.437c-0.104,0.127-0.234,0.227-0.392,0.299   c-0.157,0.073-0.339,0.109-0.545,0.109c-0.077,0-0.152-0.007-0.225-0.022c-0.073-0.016-0.141-0.031-0.202-0.046v-0.127   c0.223-0.038,0.403-0.142,0.541-0.311c0.138-0.168,0.207-0.363,0.207-0.586c0-0.038-0.004-0.084-0.012-0.138s-0.02-0.1-0.034-0.139   H168.3v-1.713h1.713V142.941z"
       id="path30" /><path
       d="M174.094,150.771h-1.782v-9.186h1.782V150.771z"
       id="path32" /><path
       d="M184.612,150.771h-1.747l-4.15-6.449v6.449h-1.747v-9.196h2l3.897,6.001v-6.001h1.747V150.771z"
       id="path34" /><path
       d="M195.947,149.081c-0.261,0.322-0.544,0.6-0.851,0.834c-0.307,0.233-0.626,0.427-0.96,0.58   c-0.333,0.153-0.674,0.267-1.023,0.339c-0.349,0.073-0.695,0.109-1.04,0.109c-0.682,0-1.322-0.123-1.92-0.368   s-1.119-0.582-1.563-1.012c-0.444-0.429-0.797-0.935-1.058-1.518c-0.261-0.582-0.391-1.211-0.391-1.885   c0-0.659,0.128-1.278,0.385-1.857c0.257-0.578,0.609-1.082,1.058-1.512c0.448-0.429,0.972-0.768,1.569-1.017   c0.598-0.25,1.238-0.374,1.92-0.374c0.789,0,1.508,0.161,2.156,0.482c0.646,0.322,1.197,0.751,1.649,1.288l-1.206,1.229   c-0.344-0.467-0.73-0.803-1.158-1.005c-0.429-0.203-0.907-0.306-1.436-0.306c-0.436,0-0.845,0.081-1.228,0.242   c-0.383,0.16-0.718,0.381-1.005,0.66c-0.286,0.28-0.512,0.605-0.677,0.978c-0.164,0.372-0.246,0.769-0.246,1.19   c0,0.429,0.082,0.829,0.246,1.201c0.165,0.372,0.39,0.699,0.677,0.982c0.287,0.284,0.621,0.506,1.004,0.667   c0.382,0.161,0.792,0.242,1.228,0.242c0.413,0,0.803-0.077,1.17-0.23s0.696-0.356,0.986-0.609v-0.885h-1.885v-1.518h3.598V149.081z   "
       id="path36" /><path
       d="M204.547,150.771h-6.07v-9.186h6.07v1.472h-4.322v2.195h4.265v1.438h-4.265v2.529h4.322V150.771z M203.5,138.539   l-1.655,2.218h-1.218l1.034-2.218H203.5z"
       id="path38" /><path
       d="M214.722,150.771h-1.748l-4.15-6.449v6.449h-1.747v-9.196h2l3.897,6.001v-6.001h1.748V150.771z"
       id="path40" /><path
       d="M219.377,150.771h-1.782v-9.186h1.782V150.771z"
       id="path42" /><path
       d="M228.321,150.771h-6.07v-9.186h6.07v1.472h-4.322v2.195h4.265v1.438h-4.265v2.529h4.322V150.771z"
       id="path44" /><path
       d="M238.909,141.574v4.989c0,0.613-0.092,1.184-0.276,1.713c-0.184,0.528-0.45,0.99-0.799,1.385   c-0.349,0.396-0.774,0.705-1.275,0.932c-0.503,0.226-1.075,0.339-1.72,0.339c-0.628,0-1.195-0.111-1.701-0.333   c-0.506-0.223-0.937-0.527-1.293-0.914s-0.631-0.843-0.822-1.368s-0.287-1.09-0.287-1.695v-5.047h1.781v5.058   c0,0.353,0.051,0.685,0.149,0.994c0.101,0.311,0.245,0.581,0.438,0.811c0.191,0.23,0.432,0.413,0.718,0.547   c0.288,0.134,0.616,0.201,0.983,0.201c0.392,0,0.73-0.063,1.018-0.189c0.287-0.127,0.524-0.303,0.713-0.529   c0.188-0.226,0.329-0.492,0.425-0.799s0.145-0.644,0.145-1.012v-5.081H238.909z"
       id="path46" /><path
       d="M248.462,150.771H246.5l-0.653-2.092c-0.069-0.23-0.155-0.44-0.259-0.633c-0.103-0.191-0.228-0.355-0.372-0.494   c-0.146-0.138-0.319-0.245-0.521-0.321c-0.203-0.077-0.442-0.115-0.717-0.115h-0.666v3.655h-1.759v-9.186l3.626-0.011   c0.391,0,0.754,0.066,1.091,0.201c0.336,0.134,0.627,0.319,0.872,0.557c0.244,0.238,0.436,0.518,0.573,0.84   c0.138,0.321,0.207,0.671,0.207,1.046c0,0.269-0.042,0.529-0.126,0.782c-0.084,0.252-0.201,0.486-0.354,0.701   s-0.333,0.404-0.543,0.569c-0.209,0.164-0.439,0.289-0.69,0.373c0.289,0.107,0.525,0.263,0.708,0.466s0.328,0.446,0.435,0.729   c0.053,0.131,0.103,0.261,0.147,0.392c0.046,0.13,0.094,0.266,0.144,0.407c0.05,0.143,0.103,0.296,0.16,0.46   c0.057,0.165,0.119,0.348,0.188,0.547c0.084,0.253,0.162,0.469,0.235,0.649C248.299,150.474,248.378,150.633,248.462,150.771z    M246.14,144.345c0-0.215-0.04-0.41-0.12-0.587c-0.081-0.176-0.19-0.329-0.328-0.46c-0.138-0.13-0.301-0.231-0.488-0.305   c-0.188-0.072-0.39-0.108-0.604-0.108h-1.288v2.862h1.288c0.214,0,0.415-0.033,0.604-0.098c0.188-0.065,0.351-0.159,0.488-0.282   c0.138-0.122,0.247-0.27,0.328-0.442C246.1,144.752,246.14,144.559,246.14,144.345z"
       id="path48" /><path
       d="M256.854,148.356c0,0.345-0.074,0.673-0.224,0.983c-0.149,0.31-0.358,0.584-0.627,0.821   c-0.269,0.238-0.586,0.428-0.954,0.569s-0.774,0.213-1.219,0.213c-0.398,0-0.757-0.023-1.074-0.069   c-0.318-0.046-0.617-0.118-0.897-0.218c-0.279-0.1-0.548-0.229-0.805-0.386s-0.522-0.347-0.799-0.569l1.265-1.275   c0.368,0.307,0.729,0.522,1.08,0.649c0.353,0.126,0.736,0.189,1.15,0.189c0.168,0,0.327-0.024,0.477-0.074   c0.15-0.05,0.28-0.117,0.392-0.202c0.11-0.084,0.199-0.184,0.264-0.298c0.065-0.115,0.098-0.242,0.098-0.38   c0-0.146-0.026-0.276-0.08-0.391c-0.054-0.115-0.149-0.227-0.287-0.334c-0.138-0.106-0.33-0.216-0.575-0.327   s-0.56-0.235-0.942-0.374c-0.337-0.122-0.661-0.263-0.972-0.419c-0.311-0.157-0.582-0.348-0.816-0.569   c-0.233-0.223-0.421-0.483-0.563-0.782c-0.142-0.299-0.212-0.65-0.212-1.057c0-0.392,0.078-0.752,0.235-1.081   c0.157-0.33,0.371-0.611,0.644-0.846c0.271-0.233,0.59-0.415,0.954-0.546c0.364-0.13,0.757-0.195,1.179-0.195   c0.705,0,1.299,0.092,1.782,0.276c0.482,0.184,0.911,0.452,1.287,0.805l-1.241,1.253c-0.23-0.223-0.487-0.393-0.771-0.512   c-0.283-0.118-0.617-0.178-1-0.178c-0.177,0-0.339,0.026-0.489,0.08c-0.148,0.054-0.277,0.125-0.385,0.213   s-0.193,0.191-0.259,0.311c-0.065,0.118-0.098,0.243-0.098,0.373c0,0.146,0.03,0.278,0.093,0.397   c0.061,0.118,0.164,0.233,0.31,0.344c0.146,0.111,0.339,0.223,0.581,0.334c0.241,0.111,0.542,0.231,0.902,0.362   c0.46,0.161,0.854,0.337,1.184,0.528c0.33,0.192,0.599,0.402,0.806,0.633c0.206,0.229,0.359,0.488,0.459,0.775   C256.805,147.673,256.854,147.996,256.854,148.356z"
       id="path50" /><path
       d="M67.22,165.918c-0.46,0.56-1.018,1.004-1.673,1.334c-0.655,0.329-1.378,0.493-2.167,0.493c-0.683,0-1.322-0.124-1.92-0.373   s-1.118-0.588-1.561-1.018c-0.442-0.429-0.791-0.933-1.046-1.512c-0.255-0.578-0.383-1.201-0.383-1.868s0.128-1.289,0.383-1.868   c0.255-0.578,0.604-1.084,1.046-1.518c0.442-0.433,0.963-0.771,1.561-1.018c0.598-0.245,1.237-0.368,1.92-0.368   c0.789,0,1.512,0.165,2.167,0.495s1.201,0.759,1.638,1.287l-1.229,1.265c-0.284-0.406-0.649-0.733-1.098-0.982   c-0.449-0.249-0.941-0.374-1.478-0.374c-0.43,0-0.834,0.082-1.213,0.247c-0.38,0.165-0.711,0.388-0.994,0.667   c-0.284,0.28-0.508,0.605-0.673,0.978s-0.247,0.768-0.247,1.189c0,0.414,0.082,0.807,0.247,1.179   c0.165,0.371,0.389,0.697,0.673,0.977c0.283,0.28,0.614,0.503,0.994,0.667c0.379,0.165,0.783,0.247,1.213,0.247   c0.567,0,1.069-0.128,1.506-0.385s0.801-0.596,1.092-1.018L67.22,165.918z"
       id="path52" /><path
       d="M75.37,167.573H69.3v-9.186h6.07v1.472h-4.322v2.195h4.265v1.438h-4.265v2.529h4.322V167.573z"
       id="path54" /><path
       d="M85.545,167.573h-1.748l-4.15-6.449v6.449h-1.747v-9.197h2l3.897,6.002v-6.002h1.748V167.573z"
       id="path56" /><path
       d="M94.729,159.975h-2.541v7.599h-1.805v-7.599h-2.54v-1.587h6.886V159.975z"
       id="path58" /><path
       d="M103.938,167.573h-1.962l-0.653-2.093c-0.069-0.229-0.155-0.44-0.259-0.632s-0.228-0.356-0.372-0.494   c-0.146-0.138-0.319-0.245-0.522-0.322c-0.202-0.076-0.441-0.114-0.717-0.114h-0.665v3.655h-1.759v-9.186l3.626-0.012   c0.391,0,0.754,0.067,1.091,0.201c0.336,0.134,0.627,0.32,0.872,0.558c0.244,0.237,0.436,0.518,0.573,0.84   c0.138,0.321,0.207,0.67,0.207,1.046c0,0.269-0.042,0.528-0.126,0.781s-0.202,0.487-0.354,0.702   c-0.151,0.214-0.333,0.403-0.542,0.568s-0.439,0.29-0.69,0.374c0.289,0.107,0.525,0.263,0.708,0.465   c0.183,0.204,0.327,0.447,0.435,0.73c0.053,0.131,0.103,0.261,0.147,0.391c0.046,0.131,0.094,0.267,0.144,0.408   c0.049,0.143,0.103,0.296,0.16,0.46c0.057,0.165,0.119,0.348,0.188,0.546c0.085,0.254,0.163,0.47,0.236,0.649   C103.774,167.276,103.854,167.436,103.938,167.573z M101.615,161.146c0-0.214-0.04-0.409-0.12-0.586   c-0.081-0.177-0.19-0.33-0.328-0.46s-0.301-0.231-0.488-0.305c-0.188-0.073-0.39-0.109-0.604-0.109h-1.288v2.862h1.288   c0.214,0,0.415-0.032,0.604-0.098c0.188-0.064,0.351-0.158,0.488-0.281c0.138-0.122,0.247-0.271,0.328-0.442   C101.575,161.555,101.615,161.361,101.615,161.146z"
       id="path60" /><path
       d="M112.261,167.573h-6.07v-9.186h6.07v1.472h-4.322v2.195h4.265v1.438h-4.265v2.529h4.322V167.573z"
       id="path62" /><path
       d="M127.734,162.975c0,0.637-0.106,1.232-0.321,1.788s-0.514,1.042-0.897,1.46c-0.383,0.418-0.841,0.747-1.373,0.988   c-0.533,0.241-1.114,0.362-1.742,0.362h-3.84v-9.197h3.84c0.628,0,1.209,0.123,1.742,0.368c0.532,0.245,0.99,0.575,1.373,0.988   c0.384,0.414,0.683,0.901,0.897,1.461S127.734,162.347,127.734,162.975z M125.93,162.929c0.008-0.429-0.058-0.835-0.195-1.219   c-0.138-0.383-0.337-0.718-0.598-1.006c-0.261-0.287-0.581-0.514-0.96-0.679c-0.379-0.164-0.807-0.247-1.282-0.247h-1.552v6.277   h1.552c0.468,0,0.888-0.078,1.259-0.235c0.372-0.157,0.688-0.376,0.949-0.655c0.26-0.279,0.461-0.609,0.603-0.989   C125.848,163.797,125.922,163.381,125.93,162.929z"
       id="path64" /><path
       d="M136.334,167.573h-6.07v-9.186h6.07v1.472h-4.323v2.195h4.266v1.438h-4.266v2.529h4.323V167.573z"
       id="path66" /><path
       d="M150.543,167.573h-1.963l-0.653-2.093c-0.068-0.229-0.154-0.44-0.258-0.632s-0.228-0.356-0.373-0.494   c-0.145-0.138-0.318-0.245-0.521-0.322c-0.202-0.076-0.441-0.114-0.717-0.114h-0.665v3.655h-1.759v-9.186l3.626-0.012   c0.391,0,0.754,0.067,1.091,0.201c0.336,0.134,0.627,0.32,0.872,0.558c0.244,0.237,0.436,0.518,0.573,0.84   c0.138,0.321,0.207,0.67,0.207,1.046c0,0.269-0.042,0.528-0.126,0.781s-0.202,0.487-0.354,0.702   c-0.151,0.214-0.333,0.403-0.542,0.568c-0.21,0.165-0.439,0.29-0.69,0.374c0.289,0.107,0.525,0.263,0.708,0.465   c0.183,0.204,0.327,0.447,0.434,0.73c0.054,0.131,0.104,0.261,0.148,0.391c0.046,0.131,0.094,0.267,0.143,0.408   c0.05,0.143,0.104,0.296,0.161,0.46c0.057,0.165,0.119,0.348,0.188,0.546c0.085,0.254,0.163,0.47,0.236,0.649   C150.38,167.276,150.458,167.436,150.543,167.573z M148.221,161.146c0-0.214-0.04-0.409-0.121-0.586   c-0.08-0.177-0.189-0.33-0.327-0.46s-0.301-0.231-0.488-0.305c-0.188-0.073-0.39-0.109-0.604-0.109h-1.287v2.862h1.287   c0.215,0,0.416-0.032,0.604-0.098c0.188-0.064,0.351-0.158,0.488-0.281c0.138-0.122,0.247-0.271,0.327-0.442   C148.181,161.555,148.221,161.361,148.221,161.146z"
       id="path68" /><path
       d="M158.865,167.573h-6.069v-9.186h6.069v1.472h-4.322v2.195h4.266v1.438h-4.266v2.529h4.322V167.573z"
       id="path70" /><path
       d="M169.799,165.918c-0.46,0.56-1.018,1.004-1.673,1.334c-0.655,0.329-1.378,0.493-2.167,0.493   c-0.683,0-1.322-0.124-1.92-0.373s-1.118-0.588-1.561-1.018c-0.442-0.429-0.791-0.933-1.046-1.512   c-0.255-0.578-0.383-1.201-0.383-1.868s0.128-1.289,0.383-1.868c0.255-0.578,0.604-1.084,1.046-1.518   c0.442-0.433,0.963-0.771,1.561-1.018c0.598-0.245,1.237-0.368,1.92-0.368c0.789,0,1.512,0.165,2.167,0.495   s1.201,0.759,1.638,1.287l-1.229,1.265c-0.284-0.406-0.649-0.733-1.098-0.982c-0.449-0.249-0.941-0.374-1.478-0.374   c-0.43,0-0.834,0.082-1.213,0.247c-0.38,0.165-0.711,0.388-0.994,0.667c-0.284,0.28-0.508,0.605-0.673,0.978   s-0.247,0.768-0.247,1.189c0,0.414,0.082,0.807,0.247,1.179c0.165,0.371,0.389,0.697,0.673,0.977   c0.283,0.28,0.614,0.503,0.994,0.667c0.379,0.165,0.783,0.247,1.213,0.247c0.567,0,1.069-0.128,1.506-0.385   s0.801-0.596,1.092-1.018L169.799,165.918z"
       id="path72" /><path
       d="M179.064,167.573h-1.782v-4.069h-3.62v4.069h-1.782v-9.186h1.782v3.645h3.62v-3.645h1.782V167.573z"
       id="path74" /><path
       d="M188.009,167.573h-6.07v-9.186h6.07v1.472h-4.323v2.195h4.266v1.438h-4.266v2.529h4.323V167.573z"
       id="path76" /><path
       d="M197.447,167.573h-1.963l-0.653-2.093c-0.068-0.229-0.154-0.44-0.258-0.632s-0.228-0.356-0.373-0.494   c-0.145-0.138-0.318-0.245-0.521-0.322c-0.203-0.076-0.441-0.114-0.717-0.114h-0.665v3.655h-1.759v-9.186l3.626-0.012   c0.391,0,0.754,0.067,1.091,0.201c0.336,0.134,0.627,0.32,0.871,0.558c0.245,0.237,0.437,0.518,0.574,0.84   c0.138,0.321,0.206,0.67,0.206,1.046c0,0.269-0.041,0.528-0.125,0.781s-0.202,0.487-0.354,0.702   c-0.152,0.214-0.333,0.403-0.542,0.568c-0.21,0.165-0.439,0.29-0.69,0.374c0.289,0.107,0.524,0.263,0.707,0.465   c0.184,0.204,0.328,0.447,0.435,0.73c0.054,0.131,0.104,0.261,0.148,0.391c0.046,0.131,0.093,0.267,0.143,0.408   c0.05,0.143,0.104,0.296,0.16,0.46c0.058,0.165,0.12,0.348,0.188,0.546c0.084,0.254,0.163,0.47,0.236,0.649   C197.284,167.276,197.362,167.436,197.447,167.573z M195.125,161.146c0-0.214-0.04-0.409-0.121-0.586   c-0.08-0.177-0.189-0.33-0.327-0.46s-0.301-0.231-0.488-0.305c-0.188-0.073-0.39-0.109-0.604-0.109h-1.287v2.862h1.287   c0.215,0,0.416-0.032,0.604-0.098c0.188-0.064,0.351-0.158,0.488-0.281c0.138-0.122,0.247-0.271,0.327-0.442   C195.085,161.555,195.125,161.361,195.125,161.146z"
       id="path78" /><path
       d="M208.104,165.918c-0.46,0.56-1.018,1.004-1.673,1.334c-0.655,0.329-1.378,0.493-2.167,0.493   c-0.683,0-1.322-0.124-1.92-0.373s-1.118-0.588-1.561-1.018c-0.442-0.429-0.791-0.933-1.046-1.512   c-0.255-0.578-0.383-1.201-0.383-1.868s0.128-1.289,0.383-1.868c0.255-0.578,0.604-1.084,1.046-1.518   c0.442-0.433,0.963-0.771,1.561-1.018c0.598-0.245,1.237-0.368,1.92-0.368c0.789,0,1.512,0.165,2.167,0.495   s1.201,0.759,1.638,1.287l-1.229,1.265c-0.284-0.406-0.649-0.733-1.098-0.982c-0.449-0.249-0.941-0.374-1.478-0.374   c-0.43,0-0.834,0.082-1.213,0.247c-0.38,0.165-0.711,0.388-0.994,0.667c-0.284,0.28-0.508,0.605-0.673,0.978   s-0.247,0.768-0.247,1.189c0,0.414,0.082,0.807,0.247,1.179c0.165,0.371,0.389,0.697,0.673,0.977   c0.283,0.28,0.614,0.503,0.994,0.667c0.379,0.165,0.783,0.247,1.213,0.247c0.567,0,1.069-0.128,1.506-0.385   s0.801-0.596,1.092-1.018L208.104,165.918z"
       id="path80" /><path
       d="M217.37,167.573h-1.782v-4.069h-3.621v4.069h-1.782v-9.186h1.782v3.645h3.621v-3.645h1.782V167.573z"
       id="path82" /><path
       d="M226.314,167.573h-6.07v-9.186h6.07v1.472h-4.323v2.195h4.266v1.438h-4.266v2.529h4.323V167.573z"
       id="path84" /></g><g
     id="g104"><path
       d="M102.426,81.513V37.48h33.717v10.253h-21.64v5.85h13.021v10.127h-13.021v7.548h22.079v10.253H102.426z"
       id="path88" /><path
       d="M176.212,81.513l-17.361-24.847v24.847h-11.322V37.48h10.756l16.544,23.4v-23.4h11.323v44.033H176.212z"
       id="path90" /><path
       d="M215.087,82.206c-7.107,0-13.964-2.328-18.556-5.347l5.912-9.561c3.209,2.201,8.807,4.403,12.896,4.403   c4.341,0,5.725-0.755,5.725-2.831c0-1.636-1.572-2.642-7.485-4.026c-10.631-2.454-15.727-5.347-15.727-14.153   c0-8.304,6.731-13.902,17.361-13.902c7.486,0,12.896,1.824,17.551,5.095l-5.913,9.562c-3.9-2.642-7.8-4.152-12.267-4.152   c-3.648,0-4.528,1.132-4.528,2.705c0,1.636,1.572,2.39,7.233,3.711c11.071,2.643,15.978,6.039,15.978,14.28   C233.267,78.054,225.655,82.206,215.087,82.206z"
       id="path92" /><path
       d="M244.4,81.513V37.48h12.455v44.033H244.4z"
       id="path94" /><path
       d="M119.897,130.089c-11.393,0-17.472-8.435-17.472-19.772c0-12.323,7.229-19.771,17.526-19.771   c9.42,0,13.145,4.053,15.773,11.282l-9.64,3.779c-1.369-3.56-2.684-5.806-6.188-5.806c-4.437,0-6.354,4.437-6.354,10.516   c0,5.861,1.862,10.516,6.463,10.516c3.341,0,4.765-1.808,6.846-5.421l8.982,4.764C133.261,125.214,128.989,130.089,119.897,130.089   z"
       id="path96" /><path
       d="M166.521,129.486l-2.081-6.737h-11.502l-2.081,6.737h-11.392l13.911-38.339h10.734l13.912,38.339H166.521z    M161.154,111.795c-1.369-4.929-1.972-7.011-2.465-9.584c-0.493,2.574-1.096,4.71-2.465,9.584l-0.712,2.52h6.354L161.154,111.795z"
       id="path98" /><path
       d="M184.337,129.486V91.147h29.356v8.927h-18.841v5.094h11.338v8.818h-11.338v6.572h19.225v8.928H184.337z"
       id="path100" /><path
       d="M248.202,129.486l-9.146-12.652c-1.698-2.354-4.984-7.284-5.97-8.982c0.273,1.698,0.328,6.792,0.328,9.913v11.721h-10.188   V91.147h9.366l8.435,11.337c1.752,2.355,5.148,7.449,5.97,9.037c-0.273-1.698-0.329-6.792-0.329-9.913V91.147h10.188v38.339   H248.202z"
       id="path102" /></g><g
     id="g188"><rect
       x="60.751"
       y="61.021"
       fill="#CE5858"
       width="13.176"
       height="6.725"
       id="rect106" /><rect
       x="44.214"
       y="69.934"
       fill="#CE5858"
       width="13.749"
       height="6.714"
       id="rect108" /><rect
       x="76.886"
       y="78.836"
       fill="#CE5858"
       width="13.748"
       height="6.724"
       id="rect110" /><rect
       x="76.886"
       y="69.929"
       fill="#DC9448"
       width="13.748"
       height="6.724"
       id="rect112" /><rect
       x="44.214"
       y="52.116"
       fill="#DC9448"
       width="13.749"
       height="6.724"
       id="rect114" /><rect
       x="60.751"
       y="52.12"
       fill="#4ABBBF"
       width="13.176"
       height="6.714"
       id="rect116" /><rect
       x="60.751"
       y="69.932"
       fill="#C0AA3B"
       width="13.176"
       height="6.714"
       id="rect118" /><rect
       x="76.886"
       y="52.116"
       fill="#CE5858"
       width="13.748"
       height="6.724"
       id="rect120" /><rect
       x="76.886"
       y="61.022"
       fill="#C0AA3B"
       width="13.748"
       height="6.724"
       id="rect122" /><rect
       x="44.214"
       y="78.841"
       fill="#C0AA3B"
       width="13.749"
       height="6.714"
       id="rect124" /><rect
       x="44.214"
       y="61.022"
       fill="#4ABBBF"
       width="13.749"
       height="6.724"
       id="rect126" /><rect
       x="60.751"
       y="78.833"
       fill="#4ABBBF"
       width="13.176"
       height="6.725"
       id="rect128" /><rect
       x="76.886"
       y="114.468"
       fill="#CE5858"
       width="13.748"
       height="6.713"
       id="rect130" /><rect
       x="44.214"
       y="123.375"
       fill="#DC9448"
       width="13.749"
       height="6.714"
       id="rect132" /><rect
       x="60.751"
       y="87.74"
       fill="#CE5858"
       width="13.176"
       height="6.724"
       id="rect134" /><rect
       x="60.751"
       y="114.458"
       fill="#DC9448"
       width="13.176"
       height="6.725"
       id="rect136" /><rect
       x="44.214"
       y="87.748"
       fill="#DC9448"
       width="13.749"
       height="6.714"
       id="rect138" /><rect
       x="76.886"
       y="96.649"
       fill="#DC9448"
       width="13.748"
       height="6.724"
       id="rect140" /><rect
       x="44.214"
       y="105.561"
       fill="#CE5858"
       width="13.749"
       height="6.714"
       id="rect142" /><rect
       x="60.751"
       y="96.646"
       fill="#4ABBBF"
       width="13.176"
       height="6.724"
       id="rect144" /><rect
       x="44.214"
       y="96.649"
       fill="#C0AA3B"
       width="13.749"
       height="6.724"
       id="rect146" /><rect
       x="60.751"
       y="105.552"
       fill="#C0AA3B"
       width="13.176"
       height="6.725"
       id="rect148" /><rect
       x="76.886"
       y="123.375"
       fill="#C0AA3B"
       width="13.748"
       height="6.714"
       id="rect150" /><rect
       x="76.886"
       y="87.743"
       fill="#C0AA3B"
       width="13.748"
       height="6.724"
       id="rect152" /><rect
       x="60.751"
       y="123.364"
       fill="#4ABBBF"
       width="13.176"
       height="6.725"
       id="rect154" /><rect
       x="28.418"
       y="61.021"
       fill="#CE5858"
       width="13.176"
       height="6.725"
       id="rect156" /><rect
       x="28.418"
       y="52.12"
       fill="#4ABBBF"
       width="13.176"
       height="6.714"
       id="rect158" /><rect
       x="28.418"
       y="69.932"
       fill="#C0AA3B"
       width="13.176"
       height="6.714"
       id="rect160" /><rect
       x="28.418"
       y="78.833"
       fill="#4ABBBF"
       width="13.176"
       height="6.725"
       id="rect162" /><rect
       x="28.418"
       y="87.74"
       fill="#CE5858"
       width="13.176"
       height="6.724"
       id="rect164" /><rect
       x="28.418"
       y="114.458"
       fill="#CE5858"
       width="13.176"
       height="6.725"
       id="rect166" /><rect
       x="28.418"
       y="96.646"
       fill="#DC9448"
       width="13.176"
       height="6.724"
       id="rect168" /><rect
       x="28.418"
       y="105.552"
       fill="#C0AA3B"
       width="13.176"
       height="6.725"
       id="rect170" /><rect
       x="28.418"
       y="123.364"
       fill="#4ABBBF"
       width="13.176"
       height="6.725"
       id="rect172" /><rect
       x="76.886"
       y="105.556"
       fill="#4ABBBF"
       width="13.748"
       height="6.724"
       id="rect174" /><rect
       x="44.214"
       y="114.463"
       fill="#4ABBBF"
       width="13.749"
       height="6.725"
       id="rect176" /><path
       fill="#DC9448"
       d="M60.751,49.933h13.176v-6.101c-4.28,0.187-8.678,0.437-13.176,0.764V49.933z"
       id="path178" /><path
       fill="#C0AA3B"
       d="M44.214,49.933h13.749V44.81c-4.503,0.357-9.093,0.792-13.749,1.316V49.933z"
       id="path180" /><path
       fill="#4ABBBF"
       d="M76.886,49.933h13.748v-6.542c-4.394,0.039-8.991,0.141-13.748,0.319V49.933z"
       id="path182" /><path
       fill="#CE5858"
       d="M28.418,49.933h13.176V46.43c-4.349,0.519-8.746,1.113-13.176,1.8V49.933z"
       id="path184" /><path
       fill="#020203"
       d="M28.391,43.057v5.176c0.009-0.001,0.019-0.002,0.027-0.004c4.43-0.687,8.827-1.281,13.176-1.8   c0.876-0.104,1.749-0.205,2.62-0.303c4.656-0.524,9.246-0.959,13.749-1.316c0.933-0.074,1.863-0.146,2.788-0.214   c4.498-0.328,8.896-0.577,13.176-0.764c0.992-0.043,1.98-0.085,2.959-0.122c4.757-0.178,9.354-0.28,13.748-0.319   c0.002,0,0.004,0,0.006,0v-6.603C72.37,37.229,50.672,38.875,28.391,43.057z"
       id="path186" /></g></svg>